<svg xmlns="http://www.w3.org/2000/svg" width="28" height="28"><g fill="none"><path stroke="#007AFF" stroke-width="3" d="M10.37 2h7.26c2.4 0 3.62 0 4.9.4 1.43.53 2.54 1.64 3.06 3.06.4 1.3.4 2.5.4 4.9v7.27c0 2.4 0 3.62-.4 4.9-.53 1.43-1.64 2.54-3.06 3.06-1.3.4-2.5.4-4.9.4h-7.27c-2.4 0-3.62 0-4.9-.4-1.43-.53-2.54-1.64-3.06-3.06-.4-1.3-.4-2.5-.4-4.9v-7.27c0-2.4 0-3.62.4-4.9.53-1.43 1.64-2.54 3.06-3.06 1.3-.4 2.5-.4 4.9-.4"/><g fill="#007AFF" transform="translate(6 5)"><circle cx="3" cy="14" r="2"/></g><path fill="#007AFF" d="M16 21c0-4.97-4.03-9-9-9v2c3.87 0 7 3.13 7 7h2z"/><path fill="#007AFF" d="M21 21c0-7.73-6.27-14-14-14v2c6.63 0 12 5.37 12 12h2z"/></g></svg>