<?xml version="1.0" encoding="UTF-8" standalone="no"?>
<svg width="28px" height="28px" viewBox="0 0 28 28" version="1.1" xmlns="http://www.w3.org/2000/svg" xmlns:xlink="http://www.w3.org/1999/xlink">
    <defs></defs>
    <g id="Page-1" stroke="none" stroke-width="1" fill="none" fill-rule="evenodd">
        <path d="M10.3674,2 L17.6326,2 C20.042,2 21.2464,2 22.5434,2.41 C23.9594,2.9254 25.0746,4.0406 25.59,5.4566 C26,6.7534 26,7.9582 26,10.3674 L26,17.6326 C26,20.042 26,21.2464 25.59,22.5434 C25.0746,23.9594 23.9594,25.0746 22.5434,25.5898 C21.2464,26 20.042,26 17.6326,26 L10.3674,26 C7.958,26 6.7534,26 5.4566,25.5898 C4.0406,25.0746 2.9254,23.9594 2.41,22.5434 C2,21.2464 2,20.042 2,17.6326 L2,10.3674 C2,7.9582 2,6.7534 2.41,5.4566 C2.9254,4.0406 4.0406,2.9254 5.4566,2.41 C6.7534,2 7.958,2 10.3674,2 L10.3674,2" id="Icon-Shape" stroke="#007AFF" stroke-width="3" fill="#007AFF"></path>
        <g id="feed-icon" transform="translate(6.000000, 5.000000)" fill="#FFFFFF">
            <circle id="Oval" cx="3" cy="14" r="2"></circle>
        </g>
        <path d="M16,21 C16,16.0294373 11.9705627,12 7,12 L7,14 C10.8659932,14 14,17.1340068 14,21 L16,21 Z" id="Oval-2-Copy" fill="#FFFFFF"></path>
        <path d="M20.9999994,21 C20.9977145,13.2690312 14.7309688,7.00228553 7,7.00000063 L7,9 C13.627417,9 19,14.372583 19,21 L20.9999994,21 Z" id="Oval-2-Copy-2" fill="#FFFFFF"></path>
    </g>
</svg>